<?xml version="1.0" encoding="UTF-8"?>
<svg version="1.1" xmlns="http://www.w3.org/2000/svg" width="895" height="260" viewBox="0 0 895 260">
<path d="M0 0 C1.12567383 0.40959961 2.25134766 0.81919922 3.41113281 1.24121094 C4.48459961 1.6540332 5.55806641 2.06685547 6.6640625 2.4921875 C7.62006348 2.85425293 8.57606445 3.21631836 9.56103516 3.58935547 C13.37929884 5.79775662 14.5654978 8.57976338 15.82788086 12.70605469 C16.54636656 16.05146068 17.25958478 19.39606849 17.9375 22.75 C18.19619873 24.01900146 18.45489746 25.28800293 18.72143555 26.59545898 C22.98643655 48.07595108 25.58597004 70.10400188 26 92 C26.02046387 92.75297363 26.04092773 93.50594727 26.06201172 94.28173828 C26.67827711 118.43832313 24.59597821 142.70681255 20.52587891 166.50488281 C19.98144893 170.12329486 19.66096445 173.7214451 19.35546875 177.3671875 C17.51211867 194.03787293 17.51211867 194.03787293 11.50244141 199.10644531 C4.97213177 202.92692766 -2.05323548 205.04545806 -9.32519531 207.00292969 C-12.82623682 207.95285352 -16.24262507 209.03733883 -19.6796875 210.1953125 C-26.06974599 212.32195408 -32.50778302 214.21151325 -39 216 C-40.47823242 216.40726318 -40.47823242 216.40726318 -41.98632812 216.82275391 C-102.48173279 233.11384841 -170.01635028 236.63210737 -232 228 C-232.70527832 227.90289734 -233.41055664 227.80579468 -234.13720703 227.70574951 C-269.59435399 222.78580696 -304.42907698 214.43801069 -337.6796875 201.0078125 C-338.81905762 200.55293457 -339.95842773 200.09805664 -341.13232422 199.62939453 C-345.09709517 197.37663774 -346.38555442 194.9419741 -347.73608398 190.67358398 C-347.90438721 189.87251221 -348.07269043 189.07144043 -348.24609375 188.24609375 C-348.44162842 187.32473633 -348.63716309 186.40337891 -348.83862305 185.45410156 C-349.13506714 183.96088379 -349.13506714 183.96088379 -349.4375 182.4375 C-349.64995361 181.37885742 -349.86240723 180.32021484 -350.08129883 179.22949219 C-360.2727461 127.06452172 -361.13225074 73.01735466 -349.63769531 20.96044922 C-349.19253742 18.8938395 -348.80007433 16.81548466 -348.44824219 14.73095703 C-346.95341352 6.96137906 -346.95341352 6.96137906 -344.48046875 4.46777344 C-342.44001026 3.31649563 -340.48275003 2.58500175 -338.25 1.875 C-337.43362061 1.57480957 -336.61724121 1.27461914 -335.77612305 0.96533203 C-332.86758969 -0.07986845 -329.93768202 -1.03987293 -327 -2 C-324.56363065 -2.83283198 -322.12744284 -3.66619518 -319.69140625 -4.5 C-304.00565363 -9.80284929 -288.17882886 -14.44259073 -272 -18 C-271.00323242 -18.21994629 -270.00646484 -18.43989258 -268.97949219 -18.66650391 C-244.16648814 -24.02627007 -219.06937392 -26.85988448 -193.75 -28.25 C-193.00059143 -28.29119965 -192.25118286 -28.33239929 -191.47906494 -28.37484741 C-126.41764997 -31.84621314 -61.06847916 -22.68465699 0 0 Z M-226 0 C-226.78020508 0.15194824 -227.56041016 0.30389648 -228.36425781 0.46044922 C-257.4220098 6.28100379 -285.49780484 18.34030994 -307 39 C-307.76699219 39.72703125 -308.53398437 40.4540625 -309.32421875 41.203125 C-312.67360631 44.45028709 -314.88115188 46.76230377 -317 51 C-310.07 51 -303.14 51 -296 51 C-295.36771484 55.56908203 -295.36771484 55.56908203 -294.72265625 60.23046875 C-294.31261492 63.18600378 -293.90205981 66.14146702 -293.49145508 69.09692383 C-293.20673784 71.14828158 -292.92255338 73.19971336 -292.63891602 75.2512207 C-292.230737 78.20283393 -291.82063215 81.15417418 -291.41015625 84.10546875 C-291.28407486 85.02023483 -291.15799347 85.93500092 -291.02809143 86.87748718 C-290.46050904 90.9459347 -289.87901631 94.984245 -289 99 C-286.99395087 96.99395087 -286.32658194 95.746357 -285.24414062 93.18041992 C-284.91039429 92.39587936 -284.57664795 91.61133881 -284.23278809 90.80302429 C-283.87753052 89.95408096 -283.52227295 89.10513763 -283.15625 88.23046875 C-282.78649048 87.35731522 -282.41673096 86.48416168 -282.0357666 85.58454895 C-280.85260805 82.78743766 -279.67629458 79.98750379 -278.5 77.1875 C-277.70746658 75.31166497 -276.91450294 73.43601165 -276.12109375 71.56054688 C-274.66344217 68.11069841 -273.20709511 64.66031654 -271.75585938 61.20776367 C-271.46432983 60.51430344 -271.17280029 59.8208432 -270.87243652 59.10636902 C-269.89473536 56.7458541 -268.94889629 54.37224073 -268 52 C-262.06 51.67 -256.12 51.34 -250 51 C-249.84724609 53.12888672 -249.84724609 53.12888672 -249.69140625 55.30078125 C-248.90100412 63.99520464 -247.36746863 72.58048995 -245.9375 81.1875 C-245.65263693 82.91986307 -245.36812892 84.65228456 -245.08398438 86.38476562 C-244.39341319 90.59052828 -243.69804661 94.79547189 -243 99 C-240.27159585 95.73112917 -238.80928795 92.42075614 -237.2578125 88.46875 C-237.00756317 87.83698853 -236.75731384 87.20522705 -236.4994812 86.55432129 C-235.70223371 84.53842717 -234.91332833 82.51939655 -234.125 80.5 C-233.34474844 78.51663836 -232.56275258 76.53397333 -231.7802124 74.55151367 C-231.26725129 73.25133662 -230.75540144 71.95072056 -230.24468994 70.6496582 C-228.21225628 65.48622248 -226.07050795 60.37327431 -223.87841797 55.27539062 C-222.87995137 53.09554491 -222.87995137 53.09554491 -223 51 C-215.74 51 -208.48 51 -201 51 C-201.6496875 52.64871094 -202.299375 54.29742187 -202.96875 55.99609375 C-203.81258865 58.14319433 -204.65633385 60.29033164 -205.5 62.4375 C-205.92925781 63.52611328 -206.35851562 64.61472656 -206.80078125 65.73632812 C-207.40986328 67.28803711 -207.40986328 67.28803711 -208.03125 68.87109375 C-208.40830078 69.82943115 -208.78535156 70.78776855 -209.17382812 71.77514648 C-210.0580186 73.76069288 -210.0580186 73.76069288 -210 75 C-196.8 75 -183.6 75 -170 75 C-171.32 80.28 -172.64 85.56 -174 91 C-174.73950425 94.32822486 -175.46330226 97.64835891 -176.140625 100.98828125 C-176.31253357 101.82417282 -176.48444214 102.66006439 -176.66156006 103.52128601 C-177.01595876 105.24879224 -177.36869491 106.97664042 -177.71972656 108.70483398 C-178.25878087 111.35568069 -178.80485898 114.00501825 -179.3515625 116.65429688 C-179.69832706 118.34887441 -180.04469664 120.04353282 -180.390625 121.73828125 C-180.55306702 122.52568192 -180.71550903 123.31308258 -180.88287354 124.12434387 C-181.49121829 127.13575857 -182 129.91905635 -182 133 C-176.39 133 -170.78 133 -165 133 C-162.98033651 124.96696041 -160.9628173 116.93339091 -158.94882584 108.89892769 C-158.01305672 105.16618365 -157.07643526 101.43365828 -156.13769531 97.70166016 C-152.2327274 82.17490553 -148.3539095 66.65746172 -145 51 C-138.07 51 -131.14 51 -124 51 C-124.54140625 53.22169922 -124.54140625 53.22169922 -125.09375 55.48828125 C-125.56267831 57.42964444 -126.03141855 59.37105306 -126.5 61.3125 C-126.73847656 62.28896484 -126.97695312 63.26542969 -127.22265625 64.27148438 C-127.44824219 65.20927734 -127.67382812 66.14707031 -127.90625 67.11328125 C-128.11572266 67.97735596 -128.32519531 68.84143066 -128.54101562 69.73168945 C-129.09916347 72.10435436 -129.09916347 72.10435436 -129 75 C-125.36891402 75.97344007 -122.61148115 76.12674276 -119 75 C-116.00454997 71.86918707 -113.726247 68.59234997 -111.421875 64.94140625 C-110.83043701 64.00566772 -110.83043701 64.00566772 -110.22705078 63.05102539 C-108.94508795 60.96441721 -108.94508795 60.96441721 -107.76904297 58.55639648 C-104.40777966 52.44737613 -104.40777966 52.44737613 -100.4609375 51.19311523 C-97.47883455 50.88986347 -94.62077997 50.85439127 -91.625 50.9375 C-90.09166016 50.92686523 -90.09166016 50.92686523 -88.52734375 50.91601562 C-86.01538525 50.9042775 -83.5109007 50.93342067 -81 51 C-83.0607768 54.50101726 -85.12393692 58.00062442 -87.1875 61.5 C-87.76564453 62.48226562 -88.34378906 63.46453125 -88.93945312 64.4765625 C-89.79506836 65.92675781 -89.79506836 65.92675781 -90.66796875 67.40625 C-91.22790527 68.37046875 -91.7878418 69.3346875 -92.36474609 70.328125 C-94 73 -94 73 -95.57666016 75.046875 C-99.41420955 80.10166161 -99.3176147 83.9109323 -98.55908203 90.11083984 C-98.37458496 91.3942627 -98.19008789 92.67768555 -98 94 C-97.80608695 95.56547064 -97.61604537 97.13142409 -97.42919922 98.69775391 C-96.80095792 103.90748128 -96.12132365 109.10982498 -95.4375 114.3125 C-95.20086326 116.13212135 -94.96453296 117.95178258 -94.72851562 119.77148438 C-94.15587021 124.1814566 -93.57909903 128.59087079 -93 133 C-89.37 133 -85.74 133 -82 133 C-81.39079712 131.43548096 -81.39079712 131.43548096 -80.76928711 129.83935547 C-79.18588843 125.7737039 -77.60140711 121.70847493 -76.01660156 117.64337158 C-75.29844016 115.80097074 -74.58050317 113.95848241 -73.86279297 112.11590576 C-69.80699966 101.70480476 -65.73275516 91.30176336 -61.59765625 80.921875 C-60.90176654 79.17204076 -60.20588423 77.42220358 -59.51000977 75.67236328 C-58.18663995 72.34556026 -56.85657635 69.02153073 -55.52319336 65.69873047 C-54.92147082 64.18727057 -54.31997681 62.67571966 -53.71875 61.1640625 C-53.30273277 60.13560211 -53.30273277 60.13560211 -52.87831116 59.08636475 C-51.74511772 56.22340122 -51 54.1110513 -51 51 C-43.41 51 -35.82 51 -28 51 C-27.80857422 54.48747803 -27.80857422 54.48747803 -27.61328125 58.04541016 C-27.12665811 66.16588822 -26.23071699 74.2052079 -25.1875 82.2734375 C-25.01162504 83.65821112 -24.83609531 85.04302862 -24.66088867 86.42788696 C-24.29764445 89.29023634 -23.93095769 92.15211501 -23.56152344 95.01367188 C-23.08807704 98.68241768 -22.62262571 102.35212687 -22.15953064 106.022192 C-21.80027858 108.86375244 -21.43742099 111.70484301 -21.07339478 114.54579544 C-20.90015666 115.90048091 -20.72792754 117.25529581 -20.55673218 118.61024094 C-20.31876979 120.48850493 -20.0755328 122.36609842 -19.83203125 124.24365234 C-19.69514893 125.31014008 -19.5582666 126.37662781 -19.41723633 127.47543335 C-19.12995431 129.98624493 -19.12995431 129.98624493 -18 132 C-13.38 132 -8.76 132 -4 132 C-1.41929722 126.60004207 -0.17141668 121.59512775 0.6875 115.6875 C0.87638794 114.41966675 0.87638794 114.41966675 1.0690918 113.1262207 C1.88894171 107.36839863 2.52349022 101.81448068 2 96 C1.9071875 94.95070313 1.814375 93.90140625 1.71875 92.8203125 C-1.28116996 66.91715744 -14.99445537 45.82268868 -34.921875 29.625 C-50.37694531 18.41406817 -67.78257312 10.49023382 -86 5 C-86.76989258 4.76587402 -87.53978516 4.53174805 -88.33300781 4.29052734 C-132.74907516 -8.93999123 -180.79239446 -8.89590609 -226 0 Z M-327.71875 69.06640625 C-335.81871933 87.61237261 -336.05140693 112.08558286 -329 131 C-317.60234128 159.14537319 -295.19547793 177.80506729 -268 190 C-207.47310524 215.25539467 -130.24731654 217.28274446 -69.29394531 192.2409668 C-55.53171848 186.35213588 -42.54162078 179.60628803 -31 170 C-30.21625 169.37867188 -29.4325 168.75734375 -28.625 168.1171875 C-22.04771318 162.65895296 -16.784864 156.05243003 -12 149 C-12 148.34 -12 147.68 -12 147 C-21.24 147 -30.48 147 -40 147 C-40.66 142.38 -41.32 137.76 -42 133 C-48.6 133 -55.2 133 -62 133 C-62.825 134.93875 -63.65 136.8775 -64.5 138.875 C-65.19609375 140.51082031 -65.19609375 140.51082031 -65.90625 142.1796875 C-67.12052456 144.80661929 -67.12052456 144.80661929 -67 147 C-82.51 147 -98.02 147 -114 147 C-114.33 142.38 -114.66 137.76 -115 133 C-115.36789843 129.61909972 -115.75377858 126.25378266 -116.19140625 122.8828125 C-116.30097153 122.01477997 -116.4105368 121.14674744 -116.52342224 120.25241089 C-116.86624288 117.5428102 -117.21425337 114.83390805 -117.5625 112.125 C-117.7991762 110.26176293 -118.03550667 108.39848191 -118.27148438 106.53515625 C-118.84367965 102.02292191 -119.42052244 97.51130465 -120 93 C-124.62 93 -129.24 93 -134 93 C-136.26368667 99.51209479 -138.09069727 106.02111535 -139.69921875 112.72265625 C-139.91243774 113.59821167 -140.12565674 114.47376709 -140.34533691 115.37585449 C-141.1302298 118.60372475 -141.90848981 121.83320498 -142.6875 125.0625 C-144.440625 132.301875 -146.19375 139.54125 -148 147 C-167.47 147.33 -186.94 147.66 -207 148 C-201.5 123.3125 -201.5 123.3125 -199.75976562 115.5402832 C-199.30817594 113.50220842 -198.85697749 111.46404689 -198.40625 109.42578125 C-198.16874023 108.37177124 -197.93123047 107.31776123 -197.68652344 106.23181152 C-197.35152832 104.71001282 -197.35152832 104.71001282 -197.00976562 103.1574707 C-196.81435181 102.28032913 -196.61893799 101.40318756 -196.41760254 100.49946594 C-195.86267294 97.60041172 -195.86267294 97.60041172 -196 93 C-202.93 93 -209.86 93 -217 93 C-223.15229628 107.94797461 -229.1988978 122.91318808 -234.91357422 138.03466797 C-235.30561035 139.06736816 -235.69764648 140.10006836 -236.1015625 141.1640625 C-236.44525879 142.07623535 -236.78895508 142.9884082 -237.14306641 143.92822266 C-238 146 -238 146 -239 147 C-240.48638992 147.15655027 -241.97949127 147.25066943 -243.47265625 147.31640625 C-244.37177734 147.35830078 -245.27089844 147.40019531 -246.19726562 147.44335938 C-247.14279297 147.48267578 -248.08832031 147.52199219 -249.0625 147.5625 C-250.01189453 147.60568359 -250.96128906 147.64886719 -251.93945312 147.69335938 C-254.29281353 147.79979276 -256.64628354 147.90181008 -259 148 C-259.09796875 146.96488281 -259.1959375 145.92976563 -259.296875 144.86328125 C-260.77376612 129.85049537 -262.87806797 114.93228591 -265 100 C-266.99056438 102.98584657 -268.36547426 105.87067412 -269.828125 109.14453125 C-270.09961365 109.75076828 -270.37110229 110.35700531 -270.65081787 110.98161316 C-271.22699294 112.26963879 -271.80185083 113.55825432 -272.37548828 114.84741211 C-273.23051591 116.7687179 -274.08946345 118.68822777 -274.94921875 120.60742188 C-276.64514157 124.39954098 -278.32677336 128.19781579 -280 132 C-280.43614624 132.99021149 -280.43614624 132.99021149 -280.88110352 134.00042725 C-281.73265033 135.93971331 -282.57832546 137.8814426 -283.421875 139.82421875 C-283.9178418 140.96334717 -284.41380859 142.10247559 -284.92480469 143.27612305 C-286.12238695 145.82198514 -286.12238695 145.82198514 -286 148 C-292.6 148 -299.2 148 -306 148 C-306 145.03 -306 142.06 -306 139 C-306.19526503 136.66750442 -306.43362284 134.33814584 -306.71850586 132.01489258 C-306.87544418 130.71356888 -307.03238251 129.41224518 -307.19407654 128.07148743 C-307.36751186 126.67914954 -307.5411047 125.28683127 -307.71484375 123.89453125 C-307.89224355 122.44208474 -308.06920208 120.98958427 -308.2457428 119.53703308 C-308.61492132 116.50840988 -308.98754701 113.48023966 -309.36303711 110.45239258 C-309.84287677 106.5829778 -310.31687787 102.71287803 -310.78865719 98.84247303 C-311.24132858 95.13042689 -311.69664459 91.41870673 -312.15234375 87.70703125 C-312.28122136 86.65525161 -312.28122136 86.65525161 -312.41270256 85.58222389 C-312.65773288 83.58694708 -312.9048749 81.59192994 -313.15209961 79.59692383 C-313.29199814 78.46491043 -313.43189667 77.33289703 -313.57603455 76.1665802 C-313.98690792 73.09778422 -314.47299556 70.05079715 -315 67 C-316.7687398 66.86486708 -318.54043055 66.76794414 -320.3125 66.6875 C-321.29863281 66.62949219 -322.28476562 66.57148437 -323.30078125 66.51171875 C-326.14846114 66.72826013 -326.14846114 66.72826013 -327.71875 69.06640625 Z M-48 99 C-49.0044134 101.2898234 -50.00367612 103.5816599 -51 105.875 C-51.28617187 106.52597656 -51.57234375 107.17695313 -51.8671875 107.84765625 C-53.45925765 111.29638339 -53.45925765 111.29638339 -54 115 C-51.03 115.33 -48.06 115.66 -45 116 C-44.78175223 109.9981863 -45.4943096 104.80766296 -47 99 C-47.33 99 -47.66 99 -48 99 Z " fill="#00A1E9" transform="translate(358,29)"/>
<path d="M0 0 C8.58 0 17.16 0 26 0 C33.59468538 8.70950158 33.59468538 8.70950158 35.390625 12.74609375 C38.08090814 18.36137565 41.47660213 23.2996285 45.0625 28.375 C46.13833973 29.94420239 47.21266666 31.51444351 48.28515625 33.0859375 C50.13226967 35.78179576 52.03572867 38.38097156 54 41 C54.33 27.47 54.66 13.94 55 0 C63.25 0 71.5 0 80 0 C80 27.06 80 54.12 80 82 C71.42 82 62.84 82 54 82 C46.81404928 74.18615067 46.81404928 74.18615067 45.2421875 70.58984375 C43.01576986 65.87595949 40.21840377 61.79020131 37.1875 57.5625 C33.39025058 52.08598326 29.69712784 46.54569177 26 41 C25.67 54.53 25.34 68.06 25 82 C16.75 82 8.5 82 0 82 C0 54.94 0 27.88 0 0 Z " fill="#FC991C" transform="translate(496,138)"/>
<path d="M0 0 C13.8290625 -0.0928125 13.8290625 -0.0928125 27.9375 -0.1875 C30.83136475 -0.21481201 33.72522949 -0.24212402 36.70678711 -0.27026367 C39.02196842 -0.2790324 41.33715439 -0.28667542 43.65234375 -0.29296875 C44.83703247 -0.30831665 46.02172119 -0.32366455 47.24230957 -0.33947754 C55.27845417 -0.3419975 61.85783649 0.51470189 68.8125 4.6875 C73.97506865 10.14507257 76.11433772 16.52993587 76 24 C75.20946625 31.34588282 72.66421151 36.79630139 67.0625 41.75 C64.36547702 43.73148627 62.16055155 44.97746862 59 46 C59.50789062 46.38929688 60.01578125 46.77859375 60.5390625 47.1796875 C66.23989374 51.81294735 69.56894302 56.55967082 73 63 C73.79007215 64.45068013 74.5804617 65.90118743 75.37109375 67.3515625 C76.20735271 68.90016604 77.04198337 70.44964996 77.875 72 C78.28097412 72.75458496 78.68694824 73.50916992 79.10522461 74.28662109 C82 79.76288719 82 79.76288719 82 82 C72.1 82 62.2 82 52 82 C50.47375 79.23625 48.9475 76.4725 47.375 73.625 C41.48559098 61.29401751 41.48559098 61.29401751 33 51 C31.35 50.67 29.7 50.34 28 50 C27.67 60.56 27.34 71.12 27 82 C18.09 82 9.18 82 0 82 C0 54.94 0 27.88 0 0 Z M27 17 C27 22.28 27 27.56 27 33 C38.17164091 33.56557104 38.17164091 33.56557104 48.125 29.3125 C49.41779926 25.89581623 48.90435644 23.488232 48 20 C41.95148117 15.96765411 34.03472191 16.90229553 27 17 Z " fill="#FC991C" transform="translate(675,138)"/>
<path d="M0 0 C1.27294922 -0.02900391 2.54589844 -0.05800781 3.85742188 -0.08789062 C13.17293553 -0.15008974 20.64674735 1.25562069 28.75 5.9375 C34.10008055 11.74615888 37.12302619 17.42955701 37.9375 25.3125 C35.08444871 25.81970912 32.23033186 26.31843634 29.375 26.8125 C28.57513672 26.95558594 27.77527344 27.09867188 26.95117188 27.24609375 C22.2438797 28.05305812 17.72993104 28.69343683 12.9375 28.3125 C10.75 25.9375 10.75 25.9375 8.9375 23.3125 C4.13488002 20.17521804 -1.55868103 20.70833246 -7.0625 21.3125 C-11.04747034 23.27002929 -13.89769126 25.41584427 -16.0625 29.3125 C-18.80769216 37.83704407 -19.18455972 46.79488067 -16.0625 55.3125 C-13.81083748 59.03609739 -11.16293706 61.75178001 -7.0625 63.3125 C0.54210763 64.03362659 8.22903362 64.25865669 14.9375 60.3125 C15.2675 58.3325 15.5975 56.3525 15.9375 54.3125 C10.3275 54.3125 4.7175 54.3125 -1.0625 54.3125 C-1.0625 48.7025 -1.0625 43.0925 -1.0625 37.3125 C12.4675 37.3125 25.9975 37.3125 39.9375 37.3125 C41.68492926 67.95075965 41.68492926 67.95075965 38.67480469 73.74169922 C35.39094701 77.17104426 31.44103589 78.61822158 26.91113281 79.78759766 C24.72046982 80.31154374 24.72046982 80.31154374 21.9609375 81.66796875 C14.55947073 84.81817981 6.81010808 84.71362537 -1.125 84.8125 C-2.21337158 84.83127197 -3.30174316 84.85004395 -4.4230957 84.86938477 C-15.4850623 84.7817834 -25.94712781 82.17312957 -34.0625 74.3125 C-44.62657037 62.91313104 -45.79059902 49.54365568 -45.24169922 34.73974609 C-44.54462975 25.29796869 -40.09464526 16.06803686 -33.21484375 9.56640625 C-22.81818217 1.27801402 -12.91188448 0.09602294 0 0 Z " fill="#FC991C" transform="translate(804.0625,136.6875)"/>
<path d="M0 0 C22.77 0 45.54 0 69 0 C69 6.27 69 12.54 69 19 C54.81 19 40.62 19 26 19 C26 22.96 26 26.92 26 31 C39.2 31 52.4 31 66 31 C66 36.61 66 42.22 66 48 C52.8 48 39.6 48 26 48 C26 52.95 26 57.9 26 63 C40.52 63 55.04 63 70 63 C70 69.27 70 75.54 70 82 C46.9 82 23.8 82 0 82 C0 54.94 0 27.88 0 0 Z " fill="#FC991C" transform="translate(591,138)"/>
<path d="M0 0 C22.77 0 45.54 0 69 0 C69 6.27 69 12.54 69 19 C54.81 19 40.62 19 26 19 C26 22.96 26 26.92 26 31 C39.2 31 52.4 31 66 31 C66 36.61 66 42.22 66 48 C52.8 48 39.6 48 26 48 C26 52.95 26 57.9 26 63 C40.52 63 55.04 63 70 63 C70 69.27 70 75.54 70 82 C46.9 82 23.8 82 0 82 C0 54.94 0 27.88 0 0 Z " fill="#FC991C" transform="translate(412,138)"/>
<path d="M0 0 C20 0 20 0 24.48046875 3.69921875 C25.93945312 6.11914062 25.93945312 6.11914062 27.1875 8.6875 C28.11650393 10.31753953 29.04754147 11.9464215 29.98046875 13.57421875 C30.97691406 15.36472656 31.97335937 17.15523437 33 19 C35.97 23.29 38.94 27.58 42 32 C42.33 21.44 42.66 10.88 43 0 C49.27 0 55.54 0 62 0 C62 21.12 62 42.24 62 64 C42 64 42 64 36.9765625 59.50390625 C35.203125 56.61914063 35.203125 56.61914063 33.625 53.5625 C32.76261719 52.10166992 32.76261719 52.10166992 31.8828125 50.61132812 C30.80144637 48.77423453 29.74936227 46.91926714 28.74072266 45.04125977 C26.37042702 40.90005742 23.64678953 36.9701843 21 33 C20.67 43.23 20.34 53.46 20 64 C13.4 64 6.8 64 0 64 C0 42.88 0 21.76 0 0 Z " fill="#20217B" transform="translate(446,44)"/>
<path d="M0 0 C7.280625 -0.061875 14.56125 -0.12375 22.0625 -0.1875 C24.34808838 -0.21481201 26.63367676 -0.24212402 28.98852539 -0.27026367 C30.81656365 -0.27903219 32.6446078 -0.28667526 34.47265625 -0.29296875 C35.87638489 -0.3159906 35.87638489 -0.3159906 37.30847168 -0.33947754 C43.77534232 -0.34204614 48.87668235 0.31842648 53.9609375 4.68359375 C54.42757812 5.26238281 54.89421875 5.84117188 55.375 6.4375 C55.85710938 7.01371094 56.33921875 7.58992188 56.8359375 8.18359375 C59.395133 12.17696928 59.3091701 16.36244851 59 21 C57.6057022 27.21525968 55.19673793 30.39410022 50 34 C48.67575728 34.68454615 47.34418293 35.35548896 46 36 C47.54880859 37.15048828 47.54880859 37.15048828 49.12890625 38.32421875 C53.84090404 42.3642612 56.2311603 47.31372681 58.9375 52.8125 C59.43056641 53.77865234 59.92363281 54.74480469 60.43164062 55.74023438 C64 62.78291869 64 62.78291869 64 64 C56.08 64 48.16 64 40 64 C39.18015625 62.44667969 38.3603125 60.89335938 37.515625 59.29296875 C36.42756865 57.25755299 35.33900024 55.22241091 34.25 53.1875 C33.71117187 52.16333984 33.17234375 51.13917969 32.6171875 50.08398438 C32.08867188 49.10107422 31.56015625 48.11816406 31.015625 47.10546875 C30.53383789 46.19949951 30.05205078 45.29353027 29.55566406 44.36010742 C27.22247886 40.82041794 24.99377031 39.33125677 21 38 C21 46.58 21 55.16 21 64 C14.07 64 7.14 64 0 64 C0 42.88 0 21.76 0 0 Z M21 13 C21 17.29 21 21.58 21 26 C28.77707563 26.42601497 28.77707563 26.42601497 36 24 C36.66 23.34 37.32 22.68 38 22 C37.67673447 18.40320934 37.67673447 18.40320934 37 15 C33.22777911 13.24836544 30.333361 12.77509973 26.1875 12.875 C23.6196875 12.936875 23.6196875 12.936875 21 13 Z " fill="#20217B" transform="translate(794,44)"/>
<path d="M0 0 C6.22875 -0.0825 12.4575 -0.165 18.875 -0.25 C21.79255127 -0.30462402 21.79255127 -0.30462402 24.76904297 -0.36035156 C34.68198446 -0.47009239 43.23095846 -0.46514434 51.40234375 5.859375 C60.01311363 16.46398727 61.02304551 28.14900915 59.76171875 41.52734375 C58.4719561 48.94022201 54.53864159 55.34771558 48.5625 59.9375 C42.65021018 64.07165754 35.94038057 64.28576193 29.00390625 64.1953125 C28.26394409 64.19329834 27.52398193 64.19128418 26.76159668 64.18920898 C24.02850033 64.17883777 21.29549316 64.15091602 18.5625 64.125 C12.436875 64.08375 6.31125 64.0425 0 64 C0 42.88 0 21.76 0 0 Z M21 15 C21 26.22 21 37.44 21 49 C29.43029262 49.39719664 29.43029262 49.39719664 36 46 C38.90364887 41.3679887 39.46557823 37.35417974 39.375 32 C39.38660156 31.31421875 39.39820313 30.6284375 39.41015625 29.921875 C39.38326102 25.22417529 38.531611 21.95379806 36 18 C30.47432842 14.74960495 27.80498776 15 21 15 Z " fill="#20217B" transform="translate(521,44)"/>
<path d="M0 0 C6.93 0 13.86 0 21 0 C21.04898438 3.05765625 21.09796875 6.1153125 21.1484375 9.265625 C21.20245097 12.22775151 21.25975706 15.18979729 21.31738281 18.15185547 C21.35565995 20.21006249 21.39051504 22.26833612 21.421875 24.32666016 C21.46755278 27.28572388 21.52554302 30.24432957 21.5859375 33.203125 C21.59748871 34.12305237 21.60903992 35.04297974 21.62094116 35.99078369 C21.64081085 36.8513739 21.66068054 37.71196411 21.68115234 38.59863281 C21.69447601 39.35364075 21.70779968 40.10864868 21.7215271 40.88653564 C22.04120536 43.31272726 22.71635969 44.92309489 24 47 C27.08116751 48.8487005 28.94839311 49.00181077 32.5625 48.875 C36.54958268 47.86010623 37.63547485 47.3346517 40 44 C40.61879097 40.6677603 40.60496291 37.36642002 40.609375 33.984375 C40.62591125 33.01340881 40.64244751 32.04244263 40.65948486 31.04205322 C40.70802119 27.94463817 40.72934857 24.84771427 40.75 21.75 C40.77815493 19.64841271 40.80808168 17.54684836 40.83984375 15.4453125 C40.91711439 10.29664783 40.95758203 5.14954173 41 0 C47.93 0 54.86 0 62 0 C62.09224209 6.22634125 62.17175675 12.45027562 62.21972656 18.67675781 C62.23974016 20.79109772 62.26695972 22.90538299 62.30175781 25.01953125 C62.35072941 28.07305448 62.37307182 31.12584078 62.390625 34.1796875 C62.41127014 35.11239471 62.43191528 36.04510193 62.45318604 37.006073 C62.45571536 44.54218395 60.82227523 51.35357297 56.140625 57.40234375 C55.51671875 57.90894531 54.8928125 58.41554687 54.25 58.9375 C53.63640625 59.46214844 53.0228125 59.98679688 52.390625 60.52734375 C45.59746757 64.71201753 39.504311 65.52798217 31.6875 65.4375 C30.29700439 65.42396484 30.29700439 65.42396484 28.87841797 65.41015625 C19.86344404 65.18220959 12.53774821 64.02036546 6 57.375 C0.1060975 50.62648164 -0.44171919 41.15725249 -0.29296875 32.6171875 C-0.28872391 31.67690704 -0.28447906 30.73662659 -0.28010559 29.76785278 C-0.26348872 26.80326079 -0.22586997 23.83938194 -0.1875 20.875 C-0.17243115 18.84896824 -0.15874662 16.82292569 -0.14648438 14.796875 C-0.11620955 9.86409634 -0.05745751 4.93283394 0 0 Z " fill="#20217B" transform="translate(590,44)"/>
<path d="M0 0 C0.88115479 0.00757324 1.76230957 0.01514648 2.67016602 0.02294922 C9.85666935 0.20515537 16.16612908 0.97230124 21.75390625 5.86328125 C25.5616307 10.06154154 27.125 13.84786108 27.125 19.4375 C20.86834539 20.8740374 14.49505356 21.29937687 8.125 20.4375 C5.75 17.5 5.75 17.5 4.125 14.4375 C1.288829 13.39815783 -0.77819426 13.4375 -3.875 13.4375 C-4.865 14.0975 -5.855 14.7575 -6.875 15.4375 C-6.69560654 17.41352764 -6.69560654 17.41352764 -5.875 19.4375 C-4.0716958 20.41263308 -4.0716958 20.41263308 -1.75 20.875 C2.83433321 22.09044281 7.3644693 23.40955097 11.875 24.875 C13.10734375 25.26558594 14.3396875 25.65617187 15.609375 26.05859375 C21.13028979 28.22401922 25.64920918 30.82145911 28.4296875 36.25390625 C30.33588684 42.2402289 30.10917021 49.03458625 27.625 54.8125 C24.46683917 60.16909788 19.74552804 63.48930398 13.97265625 65.578125 C3.13834025 67.99797223 -11.16430785 68.36671279 -20.875 62.4375 C-25.03644256 59.03980455 -27.14425756 54.4475439 -28.875 49.4375 C-29.0625 46.5 -29.0625 46.5 -28.875 44.4375 C-24.71873632 43.42823521 -20.83134906 43.33510421 -16.5625 43.375 C-15.30824219 43.38402344 -14.05398438 43.39304688 -12.76171875 43.40234375 C-11.80910156 43.41394531 -10.85648438 43.42554688 -9.875 43.4375 C-9.318125 44.55125 -8.76125 45.665 -8.1875 46.8125 C-6.75635384 49.28447973 -6.00520511 50.35304263 -3.5625 51.9375 C-0.07148923 52.58699038 2.67443162 52.21876077 6.125 51.4375 C8.34396136 49.61278109 8.34396136 49.61278109 8.5 47 C8.37560074 44.39779453 8.37560074 44.39779453 6.6484375 42.92578125 C3.07855246 40.82032273 -0.62229497 40.0418247 -4.625 39.0625 C-13.43608611 36.75495984 -20.64274599 34.39052609 -25.875 26.4375 C-27.4052087 21.84687391 -27.8163765 17.06209862 -26.15625 12.43359375 C-22.87271872 6.30345269 -18.59426148 3.41148979 -12.17578125 1.07470703 C-8.13775932 -0.04363308 -4.16704139 -0.04994266 0 0 Z " fill="#20217B" transform="translate(690.875,42.5625)"/>
<path d="M0 0 C8.58 0 17.16 0 26 0 C26 27.06 26 54.12 26 82 C17.42 82 8.84 82 0 82 C0 54.94 0 27.88 0 0 Z " fill="#FC991C" transform="translate(859,138)"/>
<path d="M0 0 C19.8 0 39.6 0 60 0 C60 4.95 60 9.9 60 15 C53.4 15 46.8 15 40 15 C40 31.17 40 47.34 40 64 C33.4 64 26.8 64 20 64 C20 47.83 20 31.66 20 15 C13.4 15 6.8 15 0 15 C0 10.05 0 5.1 0 0 Z " fill="#20217B" transform="translate(726,44)"/>
<path d="M0 0 C6.6 0 13.2 0 20 0 C20 21.12 20 42.24 20 64 C13.4 64 6.8 64 0 64 C0 42.88 0 21.76 0 0 Z " fill="#20217B" transform="translate(865,44)"/>
<path d="M0 0 C6.6 0 13.2 0 20 0 C20 21.12 20 42.24 20 64 C13.4 64 6.8 64 0 64 C0 42.88 0 21.76 0 0 Z " fill="#20217B" transform="translate(412,44)"/>
<path d="M0 0 C6.27 0 12.54 0 19 0 C18.51771891 5.94813341 17.91607362 10.25177915 16 16 C9.73 16 3.46 16 -3 16 C-2 8 -2 8 0 0 Z " fill="#00A1E9" transform="translate(174,80)"/>
</svg>
