<svg id="ws-img-logo" xmlns="http://www.w3.org/2000/svg" width="157.222" height="31" viewBox="0 0 157.222 31">
  <g id="Group_2376" data-name="Group 2376" transform="translate(3)">
    <path id="Path_2765" data-name="Path 2765" d="M51.665,15.428a2.889,2.889,0,1,0-2.889-2.889A2.889,2.889,0,0,0,51.665,15.428Z" transform="translate(-48.776 -3.872)" fill="#E86A33"/>
    <path id="Path_2766" data-name="Path 2766" d="M82.065,5.778a2.889,2.889,0,1,0-2.889-2.889A2.889,2.889,0,0,0,82.065,5.778Z" transform="translate(-60.974)" fill="#E86A33"/>
    <path id="Path_2767" data-name="Path 2767" d="M112.463,15.428a2.889,2.889,0,1,0-2.889-2.889A2.889,2.889,0,0,0,112.463,15.428Z" transform="translate(-73.172 -3.872)" fill="#E86A33"/>
    <path id="Path_2768" data-name="Path 2768" d="M90.956,18.984V18.2c-.195,0-.974-.077-1.325-.077-2.182,0-6.41-.58-8.009,3.941l-3.329,7.855L73.406,15.094a6.693,6.693,0,0,0-.739-1.494l-.02-.018a3.889,3.889,0,0,0-2.78-1.17A3.447,3.447,0,0,0,67.115,13.5l.006.009a6.72,6.72,0,0,0-.793,1.581L61.246,28.963l-3.135-6.9c-1.6-4.521-5.826-3.941-8.009-3.941-.351,0-1.13.077-1.325.077v.78c2.338.195,2.889,1.378,4.287,4.092l3.186,7.176,1.381,2.676a6.143,6.143,0,0,0,.793,1.415l.022.015a4.517,4.517,0,0,0,2.989,1.108,2.838,2.838,0,0,0,2.581-1.033l-.008-.008a6.1,6.1,0,0,0,.854-1.5L69.867,19.7l4.9,13.321H74.8a6.1,6.1,0,0,0,.752,1.321l.021.015a4.523,4.523,0,0,0,2.991,1.108,3.938,3.938,0,0,0,2.959-1.033l-.008-.008a6.07,6.07,0,0,0,.853-1.5l1.14-2.738,3.163-7.114C88.067,20.311,88.618,19.178,90.956,18.984Z" transform="translate(-48.776 -4.981)" fill="#E86A33"/>
  </g>
  <rect id="Rectangle_2117" data-name="Rectangle 2117" width="48" height="31" fill="#E86A33" opacity="0"/>
  <path id="Path_3669" data-name="Path 3669" d="M91.994,69.333h.576V61.785l6.182,7.692h.286V59.844h-.574v7.117l-5.033-6.255a2.294,2.294,0,0,0-1.942-.862h-.934v.287H90.7c1.006,0,1.294.575,1.294,1.437Zm-7.117-7.477,1.725,4.17H83.08Zm5.392,7.189c-.791-.072-1.136-.431-1.582-1.51l-3.163-7.691h-.432l-4.026,9.489h.647l1.15-2.732H86.89l.36.934a2.522,2.522,0,0,0,2.444,1.87,2.173,2.173,0,0,0,.575-.073ZM76.882,67.607c0,1.438.287,1.726,1.293,1.726h1.294v-.287h-.287c-.862,0-1.007-.575-1.007-1.438V59.844H76.882Zm-5.463-.215c.934,1.582,1.58,2.085,2.587,2.085a2.325,2.325,0,0,0,.862-.144v-.287c-.718-.072-1.207-.431-1.941-1.653l-1.509-2.517a2.5,2.5,0,0,0,2.3-2.443c0-2.3-2.373-2.588-3.594-2.588H66.386v.287h.288c.862,0,1.006.575,1.006,1.437v7.764h1.293V64.948h1.006Zm-1.366-2.947a4.849,4.849,0,0,1-1.079-.144v-3.81a4.921,4.921,0,0,1,1.079-.143,2.056,2.056,0,1,1,0,4.1Zm-11.815-4.6c-1.007,0-1.221.575-1.221,1.15v1.078H57.3c0-1.15.648-1.653,1.8-1.653h1.293v8.914h1.294V60.419h3.235v-.575Zm-6.207,2.012,1.725,4.17H50.233Zm5.392,7.189c-.791-.072-1.136-.431-1.582-1.51l-3.163-7.691h-.431l-4.026,9.489h.647L50.019,66.6h4.025l.36.934a2.522,2.522,0,0,0,2.443,1.87,2.169,2.169,0,0,0,.576-.073Zm-11-2.128c0-1.064-.561-1.653-1.783-2.372L42.872,63.5c-1.049-.618-1.6-1.049-1.6-1.883a1.558,1.558,0,0,1,1.668-1.454c1.611,0,2.531.763,2.847,2.689h.259V61.31c0-1.078-1.682-1.725-3.106-1.725-1.682,0-2.789.963-2.789,2.444A2.682,2.682,0,0,0,41.837,64.5l1.769,1.049c1.049.618,1.582,1.15,1.582,1.983C45.187,68.484,44.3,69,43.3,69c-1.61,0-2.575-.791-2.891-2.718h-.259v1.539c0,1.077,1.711,1.754,3.278,1.754C45.287,69.578,46.423,68.528,46.423,66.918Zm-13.05-5.061,1.725,4.17H31.575Zm5.392,7.189c-.791-.072-1.136-.431-1.582-1.51L34.02,59.844h-.432l-4.025,9.489h.647L31.36,66.6h4.026l.36.934a2.521,2.521,0,0,0,2.444,1.87,2.18,2.18,0,0,0,.575-.073ZM18.6,59.844v.287h.288c.864,0,1.007.575,1.007,1.437v7.764h1.294V64.588l3.019,3.163c1.367,1.438,2.3,1.726,3.092,1.726a2.723,2.723,0,0,0,.934-.144V69.06a4.927,4.927,0,0,1-2.444-1.6l-3.306-3.451,2.8-2.8A2.615,2.615,0,0,1,27.373,60.2v-.359h-.719c-1.15,0-1.725.791-2.444,1.509l-3.019,3.02v-2.8c0-1.437-.287-1.725-1.294-1.725Zm-3.737,7.763c0,1.438.287,1.726,1.293,1.726h1.294v-.287h-.288c-.862,0-1.007-.575-1.007-1.438V59.844H14.865ZM4.371,69.477h.287l2.07-6.053,2.129,6.053h.288l3.293-9.633h-.619L9.361,67.076,7.433,61.525A2.34,2.34,0,0,0,4.975,59.7c-.129,0-.417.029-.488.029v.288c.862.073,1.193.417,1.581,1.509l.345.993L4.874,67.076,2.947,61.525A2.341,2.341,0,0,0,.49,59.7c-.13,0-.418.029-.49.029v.288c.862.073,1.194.417,1.582,1.509Z" transform="translate(58.184 -52.538)" fill="#E86A33"/>
  <path id="Path_3670" data-name="Path 3670" d="M125.5,87.8h-.554l.5-2.406a3.413,3.413,0,0,0,.082-.589.624.624,0,0,0-.205-.492.819.819,0,0,0-.559-.181,1.887,1.887,0,0,0-1.536.89c.006-.085.008-.156.008-.219,0-.37-.064-.553-.193-.553h-.857l-.108.091-.059.28-.008.041.067.067h.571c0,.055.007.122.007.2a1.857,1.857,0,0,1-.05.4l-.6,2.837-.009.057.066.051h.437l.1-.085.393-1.825a2.576,2.576,0,0,1,.593-1.2,1.244,1.244,0,0,1,.927-.476.329.329,0,0,1,.378.366,1.922,1.922,0,0,1-.051.345l-.486,2.311a1.043,1.043,0,0,0-.026.193c0,.25.14.376.421.376h.638l.109-.083.058-.28.008-.067ZM119.4,86.2a2.73,2.73,0,0,1-.436,1.063,1.149,1.149,0,0,1-.883.561c-.346,0-.52-.224-.52-.669a3.858,3.858,0,0,1,.386-1.638c.256-.553.571-.831.939-.831a1.115,1.115,0,0,1,.764.374Zm.939,1.6h-.561l-.009-.159a2.51,2.51,0,0,1,.043-.5l.586-2.778.008-.067-.067-.041h-.334l-.111.067-.117.268a1.36,1.36,0,0,0-.4-.36,1.1,1.1,0,0,0-.5-.093,1.545,1.545,0,0,0-1.3.823,3.991,3.991,0,0,0-.653,2.233,1.393,1.393,0,0,0,.255.886.842.842,0,0,0,.694.323,1.6,1.6,0,0,0,1.332-.9,1.993,1.993,0,0,0-.015.244.468.468,0,0,0,.522.537h.52l.108-.083.059-.28.008-.059Zm-5.077,0h-.555l.5-2.406a3.367,3.367,0,0,0,.084-.589.62.62,0,0,0-.205-.492.822.822,0,0,0-.559-.181,1.884,1.884,0,0,0-1.535.89c.006-.085.008-.156.008-.219,0-.37-.065-.553-.193-.553h-.857l-.111.091-.057.28-.01.041.067.067h.571a1.916,1.916,0,0,1,.008.2,1.981,1.981,0,0,1-.049.4l-.6,2.837-.008.057.066.051h.437l.1-.085.394-1.825a2.546,2.546,0,0,1,.592-1.2,1.246,1.246,0,0,1,.928-.476.329.329,0,0,1,.378.366,2.021,2.021,0,0,1-.051.345l-.487,2.311a.894.894,0,0,0-.026.193c0,.25.141.376.42.376h.637l.111-.083.059-.28.007-.067Zm-5.095-3.55h-1.2l-.109.081-.059.289-.007.057.066.051h.68l-.63,2.977a.885.885,0,0,0-.016.195c0,.252.141.378.42.378h.637l.1-.083.067-.28.007-.059-.074-.057H109.5l.73-3.441.01-.041Zm.389-1.809a.443.443,0,0,0-.323-.14.474.474,0,0,0-.479.48.443.443,0,0,0,.138.323.468.468,0,0,0,.664,0,.468.468,0,0,0,0-.663ZM106.239,87q-.344.836-.891.835a1.542,1.542,0,0,1-.88-.333l.294-1.386a2.416,2.416,0,0,1,.393-1,1.066,1.066,0,0,1,.839-.433q.555,0,.555.768A4.083,4.083,0,0,1,106.239,87Zm-.034-2.874a1.641,1.641,0,0,0-1.25.663c-.016-.2-.028-.313-.034-.337-.039-.14-.112-.209-.218-.209h-.867l-.1.091-.066.28-.01.049.076.059h.571a1.907,1.907,0,0,1,.034.3,2.576,2.576,0,0,1-.059.5l-.84,3.967H103l-.109.083-.058.282-.008.065.066.049h1.637l.1-.081.066-.282.008-.059-.074-.057h-.581l.311-1.451a1.658,1.658,0,0,0,.99.352,1.418,1.418,0,0,0,1.209-.679,3.761,3.761,0,0,0,.63-2.191Q107.188,84.13,106.205,84.13ZM102.092,87.8h-.555l.514-2.431a3.011,3.011,0,0,0,.075-.547.667.667,0,0,0-.193-.5.742.742,0,0,0-.538-.185,1.572,1.572,0,0,0-.906.286,2.241,2.241,0,0,0-.488.512q-.024-.8-.671-.8a1.573,1.573,0,0,0-1.384.8V84.86c0-.409-.065-.612-.193-.612h-.841l-.1.091-.059.28-.008.057.067.051h.571l.008.167a2.138,2.138,0,0,1-.059.455l-.595,2.819-.01.057.069.051h.435l.1-.085.411-1.9a3.089,3.089,0,0,1,.427-1.13,1.091,1.091,0,0,1,.882-.476c.258,0,.388.118.388.358a1.864,1.864,0,0,1-.051.327l-.6,2.8v.024l-.008.033.067.051H99.3l.1-.085.4-1.841a3.383,3.383,0,0,1,.376-1.106,1.121,1.121,0,0,1,.959-.559.317.317,0,0,1,.36.358,1.721,1.721,0,0,1-.041.327l-.5,2.345a.911.911,0,0,0-.025.177c0,.256.144.384.429.384h.635l.1-.083.067-.28V87.88l.008-.033Zm-6.959-3.55h-1.2l-.11.081-.059.289-.008.057.067.051H94.5l-.63,2.977a.907.907,0,0,0-.016.195c0,.252.138.378.419.378h.636l.1-.083.067-.28.008-.059-.075-.057h-.555l.73-3.441.008-.041Zm.39-1.809a.438.438,0,0,0-.323-.14.477.477,0,0,0-.478.48.445.445,0,0,0,.14.323.459.459,0,0,0,.331.138.452.452,0,0,0,.331-.138.464.464,0,0,0,0-.663ZM92.02,87.8h-.555l.512-2.431a2.866,2.866,0,0,0,.077-.547.666.666,0,0,0-.193-.5.746.746,0,0,0-.537-.185,1.578,1.578,0,0,0-.908.286,2.331,2.331,0,0,0-.486.512c-.018-.532-.24-.8-.671-.8a1.574,1.574,0,0,0-1.386.8V84.86c0-.409-.065-.612-.193-.612H86.84l-.1.091-.059.28-.008.057.067.051h.569l.01.167a2.277,2.277,0,0,1-.059.455l-.595,2.819-.01.057.067.051h.437l.1-.085.412-1.9a3.09,3.09,0,0,1,.427-1.13,1.085,1.085,0,0,1,.882-.476c.258,0,.386.118.386.358a1.8,1.8,0,0,1-.049.327l-.6,2.8v.024l-.008.033.065.051h.445l.1-.085.4-1.841a3.335,3.335,0,0,1,.376-1.106,1.119,1.119,0,0,1,.957-.559.318.318,0,0,1,.362.358,1.569,1.569,0,0,1-.043.327l-.494,2.345a.867.867,0,0,0-.026.177c0,.256.142.384.427.384h.638l.1-.083.067-.28V87.88l.008-.033Zm-9.277-1.636a2.346,2.346,0,0,1,.488-1.116,1.062,1.062,0,0,1,.831-.4c.4,0,.6.193.6.579Q84.667,86.162,82.743,86.161Zm2.225-1.746a1.119,1.119,0,0,0-.813-.286,1.742,1.742,0,0,0-1.311.563,3.033,3.033,0,0,0-.813,2.174q0,1.527,1.36,1.528a2.494,2.494,0,0,0,1.469-.5l.083-.1-.016-.041-.2-.3-.067-.049-.116.049a1.976,1.976,0,0,1-1.093.362q-.789,0-.787-.941v-.2a5.032,5.032,0,0,0,1.754-.252,1.218,1.218,0,0,0,.847-1.219A1.041,1.041,0,0,0,84.968,84.415ZM79.58,87c-.23.557-.526.835-.89.835a1.544,1.544,0,0,1-.882-.333L78.1,86.12a2.4,2.4,0,0,1,.4-1,1.066,1.066,0,0,1,.839-.433q.555,0,.555.768A4.072,4.072,0,0,1,79.58,87Zm-.033-2.874a1.648,1.648,0,0,0-1.252.663c-.016-.2-.028-.313-.033-.337-.039-.14-.112-.209-.217-.209h-.866l-.1.091-.067.28L77,84.667l.075.059h.571a1.94,1.94,0,0,1,.033.3,2.418,2.418,0,0,1-.059.5l-.839,3.967h-.445l-.108.083-.059.282-.008.065.067.049h1.636l.1-.081.067-.282.01-.059-.077-.057h-.579l.311-1.451a1.651,1.651,0,0,0,.99.352,1.42,1.42,0,0,0,1.209-.679,3.775,3.775,0,0,0,.63-2.191Q80.528,84.13,79.546,84.13Zm-6.4,2.032a2.346,2.346,0,0,1,.486-1.116,1.062,1.062,0,0,1,.831-.4q.605,0,.6.579Q75.063,86.162,73.142,86.161Zm2.225-1.746a1.121,1.121,0,0,0-.815-.286,1.737,1.737,0,0,0-1.309.563,3.026,3.026,0,0,0-.815,2.174q0,1.527,1.36,1.528a2.494,2.494,0,0,0,1.469-.5l.083-.1-.016-.041-.2-.3-.067-.049-.118.049a1.975,1.975,0,0,1-1.091.362q-.789,0-.789-.941v-.2a5.032,5.032,0,0,0,1.754-.252A1.22,1.22,0,0,0,75.66,85.2,1.049,1.049,0,0,0,75.366,84.415Zm-3.359-1.9h-1.52l-.108.093-.067.311-.008.067.075.049h.4L68.692,85.22l.461-2.183H69.7l.108-.083.067-.319v-.067l-.067-.051H68.054l-.1.085-.077.319v.059l.067.057h.545l-1,4.719h-.553l-.1.083-.065.319-.01.067.067.051h1.754l.11-.085.067-.317.008-.059-.067-.059h-.553l.52-2.443,1.242,2.443H69.43l-.11.092-.065.309-.01.067.067.051h1.654l.1-.085.065-.317.018-.069-.075-.049H70.69l-1.319-2.477,2.175-2.242h.35l.1-.083.067-.319.008-.067Zm-8.184,1.731H62.689l.27-1.286.008-.041-.049-.059-.059.008L62.412,83l-.083.085-.244,1.167h-.612l-.1.081-.067.289-.008.057.067.051h.612l-.5,2.331a2.736,2.736,0,0,0-.067.512.722.722,0,0,0,.807.825,2.1,2.1,0,0,0,.721-.14c.258-.09.386-.177.386-.254l-.008-.051-.051-.286-.041-.051-.059.016a1.955,1.955,0,0,1-.756.211c-.246,0-.368-.128-.368-.386a1.9,1.9,0,0,1,.041-.4l.5-2.325h1.032l.11-.067.152-.3L63.9,84.3ZM58.677,86.2a2.728,2.728,0,0,1-.437,1.063,1.146,1.146,0,0,1-.88.561c-.347,0-.52-.224-.52-.669a3.865,3.865,0,0,1,.386-1.638q.387-.83.939-.831a1.118,1.118,0,0,1,.764.374Zm.941,1.6h-.563l-.008-.159a2.572,2.572,0,0,1,.041-.5l.589-2.778.008-.067-.067-.041h-.337l-.108.067-.118.268a1.35,1.35,0,0,0-.4-.36,1.094,1.094,0,0,0-.5-.093,1.543,1.543,0,0,0-1.3.823,3.977,3.977,0,0,0-.654,2.233,1.391,1.391,0,0,0,.256.886.836.836,0,0,0,.691.323,1.606,1.606,0,0,0,1.335-.9,1.564,1.564,0,0,0-.016.244.467.467,0,0,0,.52.537h.522l.108-.083.059-.28.008-.059Zm-4.969-3.564a2.037,2.037,0,0,0-.646-.1,1.462,1.462,0,0,0-1.008.343,1.135,1.135,0,0,0-.386.888,1.074,1.074,0,0,0,.545.894,6.557,6.557,0,0,1,.587.421.616.616,0,0,1,.211.478.638.638,0,0,1-.211.494.775.775,0,0,1-.545.191,1.624,1.624,0,0,1-.7-.157l.126-.6.008-.057-.075-.059h-.37l-.1.092-.193.882-.008.049.026.059a1.3,1.3,0,0,0,.506.242,2.389,2.389,0,0,0,.677.1,1.551,1.551,0,0,0,.957-.278,1.265,1.265,0,0,0,.52-1.079,1.187,1.187,0,0,0-.63-.988c-.289-.2-.469-.325-.536-.386a.493.493,0,0,1-.169-.368.56.56,0,0,1,.193-.449.8.8,0,0,1,.53-.161,1.34,1.34,0,0,1,.411.065l-.118.539-.008.067.075.049h.37l.1-.085.167-.79.008-.075C54.958,84.38,54.856,84.3,54.649,84.234Zm-3.971-.079-.049.008-.437.093-.085.092-.445,2.073a1.913,1.913,0,0,1-.419.923,1.344,1.344,0,0,1-.982.478.361.361,0,0,1-.4-.411,2.806,2.806,0,0,1,.067-.563l.538-2.508V84.3l-.049-.049H47.254l-.1.091-.059.28-.008.049.067.059h.622l-.488,2.288a2.956,2.956,0,0,0-.065.581.746.746,0,0,0,.242.581.919.919,0,0,0,.638.219,1.9,1.9,0,0,0,1.41-.789l-.008.177c0,.329.154.494.463.494h.561l.11-.083.057-.28.01-.067-.075-.049h-.555l-.008-.185a2.434,2.434,0,0,1,.059-.5l.6-2.853.008-.051Zm-5.623.821a1.317,1.317,0,0,1-.949.3h-.547l.455-2.158h.713a.92.92,0,0,1,.587.142.643.643,0,0,1,.169.508A1.634,1.634,0,0,1,45.055,84.976Zm.661-2.282a1.829,1.829,0,0,0-.939-.177H42.931l-.1.085-.075.319v.059l.067.057h.547l-1,4.719h-.553l-.1.083-.065.319-.01.067.067.051h1.855l.11-.085.067-.317.008-.069-.075-.049h-.648l.411-1.931h.6a2.183,2.183,0,0,0,1.41-.4,2.077,2.077,0,0,0,.723-1.723A1.1,1.1,0,0,0,45.716,82.694Z" transform="translate(16.404 -59.299)" fill="#E86A33"/>
</svg>
